<?xml version="1.0" encoding="UTF-8" standalone="no"?>
<svg
   width="645"
   height="645"
   viewBox="150 235 480 645"
   fill="none"
   version="1.1"
   id="svg3"
   sodipodi:docname="fixed.svg"
   inkscape:version="1.4 (86a8ad7, 2024-10-11)"
   xml:space="preserve"
   xmlns:inkscape="http://www.inkscape.org/namespaces/inkscape"
   xmlns:sodipodi="http://sodipodi.sourceforge.net/DTD/sodipodi-0.dtd"
   xmlns="http://www.w3.org/2000/svg"
   xmlns:svg="http://www.w3.org/2000/svg"><defs
     id="defs3"><filter id="glow1" x="-50%" y="-50%" width="200%" height="200%"><feGaussianBlur in="SourceGraphic" stdDeviation="10" result="blur"/><feFlood flood-color="white" flood-opacity="0.55" result="color"/><feComposite in="color" in2="blur" operator="in" result="glow"/><feMerge><feMergeNode in="glow"/><feMergeNode in="SourceGraphic"/></feMerge></filter><filter id="shadow" x="-20%" y="-20%" width="140%" height="140%"><feDropShadow dx="0" dy="12" stdDeviation="18" flood-color="black" flood-opacity="0.55"/></filter></defs><sodipodi:namedview
     id="namedview3"
     pagecolor="#000000"
     bordercolor="#000000"
     borderopacity="0.25"
     inkscape:showpageshadow="2"
     inkscape:pageopacity="0.0"
     inkscape:pagecheckerboard="0"
     inkscape:deskcolor="#d1d1d1"
     inkscape:zoom="1.6268923"
     inkscape:cx="352.81992"
     inkscape:cy="530.76656"
     inkscape:window-width="3840"
     inkscape:window-height="2066"
     inkscape:window-x="2869"
     inkscape:window-y="-11"
     inkscape:window-maximized="1"
     inkscape:current-layer="svg3" /><g filter="url(#shadow)"><path
     opacity="0.509941"
     d="M392.762 581.497C435.839 581.497 470.76 546.577 470.76 503.499C470.76 460.422 435.839 425.501 392.762 425.501C349.685 425.501 314.764 460.422 314.764 503.499C314.764 546.577 349.685 581.497 392.762 581.497Z"
     fill="#22FCFB"
     id="path1"
     filter="url(#glow1)"
     style="opacity:1;fill:#22f8fb;fill-opacity:1" /><g
     id="g6" /><ellipse
     style="fill:none;fill-opacity:1;stroke-width:79.3701;paint-order:stroke fill markers"
     id="path5"
     cx="201.61139"
     cy="502.18445"
     rx="25.201424"
     ry="50.402847" /><g
     id="g7"
     transform="matrix(-1,0,0,1,782.446,0)"><path
       id="path6"
       style="opacity:1;fill:#ffffff;fill-opacity:1"
       d="m 391.223,817.774 c -139.374,0 -180.824,-121.577 -187.358,-144.319 -0.533,-1.854 0.873,-3.644 2.802,-3.676 31.985,-0.522 47.131,-6.598 52.467,-9.413 1.377,-0.726 3.148,-0.566 4.272,0.512 9.463,9.081 53.581,47.168 127.817,47.168 z m 0,0 c 139.374,0 180.824,-121.577 187.358,-144.319 0.533,-1.854 -0.873,-3.644 -2.802,-3.676 -31.985,-0.522 -47.131,-6.598 -52.467,-9.413 -1.377,-0.726 -3.148,-0.566 -4.272,0.512 -9.463,9.081 -53.581,47.168 -127.817,47.168 z" /></g><circle
     style="fill:#000000;fill-opacity:1;stroke-width:17.29;paint-order:stroke fill markers"
     id="circle6"
     cx="300.76846"
     cy="737.83624"
     r="15.494593"
     transform="matrix(-1,0,0,1,782.446,0)" /><circle
     style="fill:#000000;fill-opacity:1;stroke-width:17.29;paint-order:stroke fill markers"
     id="path4"
     cx="300.76846"
     cy="737.83624"
     r="15.494593" /><g
     id="g10"
     transform="translate(2)"><path
       id="ellipse8"
       style="opacity:1;fill:#ffffff;stroke-width:14.5192;paint-order:stroke fill markers"
       d="m 392.76172,288.95703 c -38.44682,-10e-6 -69.61353,10.38947 -69.61133,23.20508 0.0464,2.3767 0.0452,11.62199 0,14 10e-4,12.81484 31.16681,23.20313 69.61133,23.20312 38.44452,10e-6 69.61028,-10.38828 69.61133,-23.20312 -0.0452,-2.37801 -0.0464,-11.6233 0,-14 0.002,-12.81561 -31.16451,-23.20509 -69.61133,-23.20508 z"
       sodipodi:nodetypes="sccsccs" /><ellipse
       style="opacity:1;fill:#000000;fill-opacity:1;stroke:none;stroke-width:15.7701;stroke-dasharray:none;stroke-opacity:1;paint-order:stroke fill markers"
       id="path9"
       cx="392.80273"
       cy="310.22192"
       rx="51.178452"
       ry="12.794613" /></g><g
     id="g11"
     transform="rotate(-90,384.76172,507.16113)"><path
       id="path10"
       style="opacity:1;fill:#ffffff;stroke-width:14.5192;paint-order:stroke fill markers"
       d="m 392.76172,288.95703 c -38.44682,-10e-6 -69.61353,10.38947 -69.61133,23.20508 0.0464,2.3767 0.0452,11.62199 0,14 10e-4,12.81484 31.16681,23.20313 69.61133,23.20312 38.44452,10e-6 69.61028,-10.38828 69.61133,-23.20312 -0.0452,-2.37801 -0.0464,-11.6233 0,-14 0.002,-12.81561 -31.16451,-23.20509 -69.61133,-23.20508 z"
       sodipodi:nodetypes="sccsccs" /><ellipse
       style="opacity:1;fill:#000000;fill-opacity:1;stroke:none;stroke-width:15.7701;stroke-dasharray:none;stroke-opacity:1;paint-order:stroke fill markers"
       id="ellipse10"
       cx="392.80273"
       cy="310.22192"
       rx="51.178452"
       ry="12.794613" /></g><g
     id="g12"
     transform="matrix(0,-1,-1,0,907.05357,891.92285)"><path
       id="path11"
       style="opacity:1;fill:#ffffff;stroke-width:14.5192;paint-order:stroke fill markers"
       d="m 392.76172,288.95703 c -38.44682,-10e-6 -69.61353,10.38947 -69.61133,23.20508 0.0464,2.3767 0.0452,11.62199 0,14 10e-4,12.81484 31.16681,23.20313 69.61133,23.20312 38.44452,10e-6 69.61028,-10.38828 69.61133,-23.20312 -0.0452,-2.37801 -0.0464,-11.6233 0,-14 0.002,-12.81561 -31.16451,-23.20509 -69.61133,-23.20508 z"
       sodipodi:nodetypes="sccsccs" /><ellipse
       style="opacity:1;fill:#000000;fill-opacity:1;stroke:none;stroke-width:15.7701;stroke-dasharray:none;stroke-opacity:1;paint-order:stroke fill markers"
       id="ellipse11"
       cx="392.80273"
       cy="310.22192"
       rx="51.178452"
       ry="12.794613" /></g><path
     id="path2"
     style="fill:#ffffff"
     d="M 312.03516 331.36914 C 271.99905 350.29856 239.52345 382.81721 220.60547 422.85352 C 221.02468 423.25606 221.44424 423.65881 221.83789 424.08203 C 227.10629 429.92045 230.54845 437.15292 233.10352 444.52734 C 237.46972 457.59208 239.60903 471.30998 240.49414 485.02734 C 241.47872 501.70494 240.87139 518.53347 237.88477 534.99219 C 236.12422 544.21005 233.84086 553.42562 229.81445 561.94336 C 226.93247 567.97435 223.16984 573.83762 217.75 577.87305 C 246.86654 645.82065 314.50346 693.76367 392.76172 693.76367 C 471.01255 693.76367 538.64594 645.82998 567.76758 577.89258 C 566.85529 577.21984 565.97029 576.51041 565.1543 575.73242 C 558.96654 569.65848 555.10634 561.66337 552.33789 553.54883 C 546.83021 537.00619 544.92032 519.49751 544.58789 502.13477 C 544.47132 488.03377 545.4331 473.87176 548.2793 460.04102 C 550.41094 449.95815 553.25959 439.83958 558.61523 430.94727 C 560.34295 428.01149 562.44669 425.23381 564.91406 422.85742 C 546.21605 383.26879 514.281 351.01802 474.87109 331.99805 C 473.35588 335.09536 471.20749 337.90342 468.69727 340.23828 C 462.85885 345.50668 455.62442 348.94884 448.25 351.50391 C 435.18526 355.87011 421.46736 358.00942 407.75 358.89453 C 391.0724 359.87911 374.24388 359.27178 357.78516 356.28516 C 348.5673 354.52461 339.35172 352.24321 330.83398 348.2168 C 324.45803 345.16998 318.24342 341.16213 314.20703 335.22656 C 313.35524 334.0164 312.63578 332.71813 312.03516 331.36914 z M 392.76172 392.60547 C 454.4773 392.60547 503.65625 441.78372 503.65625 503.49805 C 503.65625 565.21363 454.4773 614.39453 392.76172 614.39453 C 331.04613 614.39453 281.86719 565.21395 281.86719 503.49805 C 281.86719 441.7834 331.04613 392.60547 392.76172 392.60547 z " /></g></svg>
